# xmcd CD database file
#
# Track frame offsets:
#	150
#	23127
#	47802
#
# Disc length: 972 seconds
#
# Revision: 0
# Processed by: cddbd v1.5PL3 Copyright (c) Steve Scherf et al.
# Submitted via: CDex 1.51
#
DISCID=1d03ca03
DTITLE=CHEMISTRY - アシタヘカエル/Us　
DYEAR=1900
DGENRE=JPop
TTITLE0=アシタヘカエル
TTITLE1=Us
TTITLE2=Bright Lights
EXTD=
EXTT0=
EXTT1=
EXTT2=
PLAYORDER=
